<svg width="362" height="406" viewBox="0 0 362 406" fill="none" xmlns="http://www.w3.org/2000/svg">
<path d="M356.435 302.62L185.61 402.993C182.456 404.847 178.541 404.83 175.403 402.949L4.85874 300.722C1.84459 298.915 0 295.659 0 292.145V110.886C0 107.324 1.895 104.03 4.97481 102.24L175.891 2.89727C178.976 1.1041 182.783 1.09073 185.88 2.86218L356.333 100.341C359.447 102.121 361.369 105.434 361.369 109.021V293.999C361.369 297.544 359.492 300.824 356.435 302.62Z" fill="#7A5CFA"/>
<path d="M321.07 283.824L186.468 362.988C183.311 364.845 179.393 364.828 176.253 362.944L41.8552 282.308C38.843 280.5 37 277.245 37 273.733V130.909C37 127.348 38.8934 124.056 41.9713 122.265L176.665 43.9021C179.752 42.1062 183.562 42.0928 186.661 43.8669L320.968 120.747C324.08 122.528 326 125.839 326 129.425V275.205C326 278.749 324.124 282.028 321.07 283.824Z" fill="white"/>
<path d="M280.272 124H260.828C258.788 124 256.952 125.24 256.19 127.133L196.763 274.818C195.441 278.104 197.86 281.684 201.402 281.684H222.316C224.373 281.684 226.219 280.425 226.971 278.511L284.927 130.827C286.214 127.547 283.795 124 280.272 124Z" fill="#7A5CFA"/>
<path d="M274.727 250.728V211.275C274.727 207.969 270.162 207.094 268.939 210.166L242.123 277.576C241.34 279.545 242.791 281.684 244.911 281.684H301.882C303.539 281.684 304.882 280.341 304.882 278.684V256.728C304.882 255.072 303.539 253.728 301.882 253.728H277.727C276.07 253.728 274.727 252.385 274.727 250.728Z" fill="#7A5CFA"/>
<circle cx="127.626" cy="195.626" r="71.6259" fill="#7A5CFA"/>
<circle cx="127.5" cy="195.784" r="37.5" fill="white"/>
</svg>
